<?xml version="1.0" standalone="no"?>
<!DOCTYPE svg PUBLIC "-//W3C//DTD SVG 20010904//EN"
 "http://www.w3.org/TR/2001/REC-SVG-20010904/DTD/svg10.dtd">
<svg version="1.0" xmlns="http://www.w3.org/2000/svg"
 width="1024.000000pt" height="1024.000000pt" viewBox="0 0 1024.000000 1024.000000"
 preserveAspectRatio="xMidYMid meet">
<metadata>
Created by potrace 1.11, written by Peter Selinger 2001-2013
</metadata>
<g transform="translate(0.000000,1024.000000) scale(0.100000,-0.100000)"
fill="#000000" stroke="none">
<path d="M4965 9883 c-596 -21 -1153 -146 -1740 -391 -100 -42 -359 -172 -483
-244 -639 -368 -1204 -902 -1607 -1518 -468 -715 -733 -1531 -774 -2382 -38
-796 127 -1599 475 -2313 170 -349 369 -655 633 -975 338 -408 803 -798 1273
-1068 126 -72 384 -203 483 -244 412 -172 731 -265 1142 -332 476 -78 1030
-78 1506 0 249 41 455 89 677 159 152 48 280 96 467 174 99 41 352 169 482
243 506 291 970 690 1342 1154 562 702 911 1543 1013 2439 86 752 -19 1571
-287 2245 -79 198 -102 251 -179 405 -382 769 -960 1417 -1683 1886 -643 418
-1400 678 -2157 743 -188 16 -440 24 -583 19z m2655 -3310 l0 -398 -2515 3
-2515 2 0 395 0 395 2515 0 2515 0 0 -397z m0 -3505 c0 -5 -233 -8 -517 -8
l-518 0 -741 741 -740 740 -735 -740 -735 -741 -521 2 -522 3 1257 1261 1257
1262 1258 -1257 c691 -691 1257 -1259 1257 -1263z"/>
</g>
</svg>
